<?xml version="1.0" encoding="utf-8"?>
<!-- Generator: Adobe Illustrator 15.0.0, SVG Export Plug-In . SVG Version: 6.00 Build 0)  -->
<!DOCTYPE svg PUBLIC "-//W3C//DTD SVG 1.1//EN" "http://www.w3.org/Graphics/SVG/1.1/DTD/svg11.dtd">
<svg version="1.1" id="Layer_1" xmlns="http://www.w3.org/2000/svg" xmlns:xlink="http://www.w3.org/1999/xlink" x="0px" y="0px"
	 width="47.164px" height="50.26px" viewBox="288.596 438.551 47.164 50.26" enable-background="new 288.596 438.551 47.164 50.26"
	 xml:space="preserve">
<path fill="#FFFFFF" stroke="#000000" stroke-miterlimit="10" d="M335.76,459.432c0-12.023-8.352-20.881-20.881-20.881
	c-15.986,0-26.283,12.89-26.283,27.723c0,13.896,10.009,22.537,21.818,22.537c4.824,0,8.857-0.792,12.817-2.88l-1.152-3.097
	c-2.952,1.656-6.77,2.521-10.873,2.521c-10.657,0-18.505-7.489-18.505-19.515c0-14.617,9.865-23.978,21.602-23.978
	c11.16,0,17.426,7.561,17.426,18.072c0,8.28-4.104,13.249-7.776,13.104c-0.067-0.002-0.128-0.013-0.192-0.021
	c-0.55,1.487-1.413,2.507-2.921,3.144c0.681,0.271,1.421,0.405,2.178,0.405C329.712,476.569,335.76,470.233,335.76,459.432z"/>
<path fill="#FFFFFF" stroke="#000000" stroke-miterlimit="10" d="M324.547,476.503c0.045-0.138,0.089-0.275,0.134-0.412
	 M325.766,472.726c0,0-3.741,0.134-3.699,0.098c-0.917-0.003-1.157-0.662-1.214-1.075l0.019-8.489l-0.341-0.001
	c0.134-0.019,0.252-0.021,0.342-0.021l0.016-6.059c0.124-0.658,0.556-1.418,1.866-1.415c-0.04-0.044,2.352,0.006,2.352,0.006
	l0.009-3.457l-4.465-0.009l-0.001,0.018c-0.672-0.002-1.359-0.019-2.062-0.033l0.013-5.317l-3.236-0.009l-0.014,5.214
	c-0.861-0.02-1.731-0.037-2.584-0.041l0.016-5.178l-3.239-0.009l-0.014,5.318c-4.18,0.356-7.492,1.635-7.873,5.469l0,0
	c-0.28,2.805,0.889,4.491,2.763,5.453c-3.091,0.734-5.031,2.566-4.659,6.685c0.459,5.112,4.267,6.493,9.708,6.817l-0.013,5.37
	l3.238,0.009l0.012-5.299c0.84,0.003,1.697-0.003,2.585-0.019l-0.012,5.323l3.233,0.007l0.015-5.381
	c0.758-0.003,1.527-0.016,2.313-0.014l3.708-0.184 M306.157,469.245c0.012-4.191,6.891-3.545,9.085-3.54l-0.019,7.128
	C313.03,472.825,306.146,473.266,306.157,469.245L306.157,469.245z M315.267,455.979l-0.016,6.464
	c-1.829-0.004-7.57,0.408-7.563-3.248C307.697,455.378,313.438,455.974,315.267,455.979z"/>
</svg>
