<?xml version="1.0" encoding="utf-8"?>
<!-- Generator: Adobe Illustrator 15.0.0, SVG Export Plug-In . SVG Version: 6.00 Build 0)  -->
<!DOCTYPE svg PUBLIC "-//W3C//DTD SVG 1.1//EN" "http://www.w3.org/Graphics/SVG/1.1/DTD/svg11.dtd">
<svg version="1.1" id="Layer_1" xmlns="http://www.w3.org/2000/svg" xmlns:xlink="http://www.w3.org/1999/xlink" x="0px" y="0px"
	 width="103.501px" height="120px" viewBox="259.5 404.833 103.501 120" enable-background="new 259.5 404.833 103.501 120"
	 xml:space="preserve">
<g>
	<path d="M343,422.125c0,5.454,3.049,9.875,6.811,9.875h6.38c3.762,0,6.811-4.421,6.811-9.875l0,0c0-5.454-3.049-9.875-6.811-9.875
		h-6.38C346.049,412.25,343,416.671,343,422.125L343,422.125z"/>
	<path d="M343,443.875c0,5.454,3.049,9.875,6.811,9.875h6.38c3.762,0,6.811-4.421,6.811-9.875l0,0c0-5.454-3.049-9.875-6.811-9.875
		h-6.38C346.049,434,343,438.421,343,443.875L343,443.875z"/>
	<path d="M343,464.875c0,5.454,3.049,9.875,6.811,9.875h6.38c3.762,0,6.811-4.421,6.811-9.875l0,0c0-5.454-3.049-9.875-6.811-9.875
		h-6.38C346.049,455,343,459.421,343,464.875L343,464.875z"/>
	<path d="M343,485.875c0,5.454,3.049,9.875,6.811,9.875h6.38c3.762,0,6.811-4.421,6.811-9.875l0,0c0-5.454-3.049-9.875-6.811-9.875
		h-6.38C346.049,476,343,480.421,343,485.875L343,485.875z"/>
	<path d="M343,507.125c0,5.454,3.049,9.875,6.811,9.875h6.38c3.762,0,6.811-4.421,6.811-9.875l0,0c0-5.454-3.049-9.875-6.811-9.875
		h-6.38C346.049,497.25,343,501.671,343,507.125L343,507.125z"/>
	<rect x="328.75" y="404.833" fill="#FFFFFF" width="23.75" height="120"/>
	<path d="M350,512c0,6.627-5.373,12-12,12h-66.5c-6.627,0-12-5.373-12-12v-94.25c0-6.627,5.373-12,12-12H338c6.627,0,12,5.373,12,12
		V512z"/>
	<rect x="273" y="404.833" fill="#FFFFFF" width="6.25" height="120"/>
	<path fill="#FFFFFF" d="M335.76,459.432c0-12.023-8.352-20.881-20.881-20.881c-15.986,0-26.283,12.89-26.283,27.723
		c0,13.896,10.009,22.537,21.818,22.537c4.824,0,8.857-0.792,12.817-2.88l-1.152-3.097c-2.952,1.656-6.77,2.521-10.873,2.521
		c-10.657,0-18.505-7.489-18.505-19.515c0-14.617,9.865-23.978,21.602-23.978c11.16,0,17.426,7.561,17.426,18.072
		c0,8.28-4.104,13.249-7.776,13.104c-0.067-0.002-0.128-0.013-0.192-0.021c-0.55,1.487-1.413,2.507-2.921,3.144
		c0.681,0.271,1.421,0.405,2.178,0.405C329.712,476.569,335.76,470.233,335.76,459.432z"/>
	<path fill="#FFFFFF" d="M301.655,457.732c-0.28,2.805,0.889,4.491,2.763,5.453c-3.091,0.734-5.031,2.566-4.659,6.685
		c0.459,5.112,4.267,6.493,9.708,6.817l-0.013,5.37l3.238,0.009l0.012-5.299c0.84,0.003,1.697-0.003,2.585-0.019l-0.012,5.323
		l3.233,0.007l0.015-5.381c0.758-0.003,1.527-0.016,2.313-0.014l3.708-0.184l1.219-3.777c0,0-3.741,0.134-3.699,0.098
		c-0.917-0.003-1.157-0.662-1.214-1.075l0.019-8.489l-0.341-0.001c0.134-0.019,0.252-0.021,0.342-0.021l0.016-6.059
		c0.124-0.658,0.556-1.418,1.866-1.415c-0.04-0.044,2.351,0.006,2.351,0.006l0.01-3.457l-4.465-0.009l-0.001,0.018
		c-0.672-0.003-1.359-0.019-2.062-0.033l0.013-5.317l-3.236-0.009l-0.014,5.214c-0.861-0.02-1.731-0.037-2.584-0.041l0.016-5.178
		l-3.239-0.009l-0.014,5.318C305.346,452.621,302.034,453.898,301.655,457.732L301.655,457.732z M306.157,469.245
		c0.012-4.191,6.891-3.545,9.085-3.54l-0.019,7.128C313.03,472.825,306.146,473.266,306.157,469.245L306.157,469.245z
		 M315.267,455.979l-0.016,6.464c-1.829-0.004-7.57,0.408-7.563-3.248C307.697,455.378,313.438,455.974,315.267,455.979z"/>
</g>
</svg>
