<?xml version="1.0" encoding="utf-8"?>
<!-- Generator: Adobe Illustrator 15.0.0, SVG Export Plug-In . SVG Version: 6.00 Build 0)  -->
<!DOCTYPE svg PUBLIC "-//W3C//DTD SVG 1.1//EN" "http://www.w3.org/Graphics/SVG/1.1/DTD/svg11.dtd">
<svg version="1.1" id="Capa_1" xmlns="http://www.w3.org/2000/svg" xmlns:xlink="http://www.w3.org/1999/xlink" x="0px" y="0px"
	 width="528.899px" height="528.899px" viewBox="0 0 528.899 528.899" enable-background="new 0 0 528.899 528.899"
	 xml:space="preserve">
<rect y="1.289" width="528.899" height="527.61"/>
<rect x="62.95" y="63.085" fill="#FFFFFF" width="403" height="402.017"/>
<rect x="264.449" y="1.289" fill="#FFFFFF" width="264.45" height="263.806"/>
<g>
	<path d="M371.047,70.609l84.909,84.909l-214.931,214.93l-84.861-84.908L371.047,70.609z M520.387,50.13L482.52,12.264
		c-14.635-14.634-38.396-14.634-53.08,0l-36.272,36.272l84.91,84.91l42.31-42.31C531.737,79.786,531.737,61.481,520.387,50.13z
		 M111.729,404.886c-1.545,6.954,4.733,13.187,11.688,11.494l94.618-22.941l-84.862-84.908L111.729,404.886z"/>
</g>
</svg>
